# xmcd
#
# Track frame offsets:
#	150
#	11367
#	21892
#	36665
#	46135
#	58165
#	71740
#	85990
#	97290
#	110700
#	123372
#	138955
#
# Disc length: 2057 seconds
#
# Revision: 1
# Processed by: cddbd v1.4PL0 Copyright (c) Steve Scherf et al.
# Submitted via: audiograbber 1.80
#
DISCID=ac08070c
DTITLE=Waylon Jennings - The Best of Waylon Jennings
DYEAR=1900
DGENRE=
TTITLE0=Rainy Day Woman
TTITLE1=The Taker
TTITLE2=Luckenbach, Texas (Back to the Basics of Love)
TTITLE3=Theme from the Dukes of Hazzard (Good Ol' Boys)
TTITLE4=Waymore's Blues
TTITLE5=Come With Me
TTITLE6=Are You Ready for the Country
TTITLE7=Ladies Loves Outlaws
TTITLE8=Pretend I Never Happened
TTITLE9=Cedartown, Georgia
TTITLE10=It's Not Supposed to be That Way
TTITLE11=America
EXTD=
EXTT0=
EXTT1=
EXTT2=
EXTT3=
EXTT4=
EXTT5=
EXTT6=
EXTT7=
EXTT8=
EXTT9=
EXTT10=
EXTT11=
PLAYORDER=
